<svg xmlns="http://www.w3.org/2000/svg" version="1.1" xmlns:xlink="http://www.w3.org/1999/xlink" width="705.7276021355813" height="200" viewBox="-0.007579982280731201 12.984308242797852 165.4518280029297 39.722251892089844"><path d="M2.52 38.68C2.40 37.12 2.44 35.96 2.84 34.84C3.20 33.76 3.60 32.64 4 31.56C4.16 31.12 4.40 30.76 4.80 30.52C4.96 30.44 5.08 30.32 5.24 30.24C5.88 29.96 6.24 29.52 6.28 28.80C6.32 27.72 6.72 26.72 6.92 25.68C7.76 24.28 8.12 22.68 8.80 21.20C9.32 20.08 9.76 18.92 10.20 17.76C10.72 16.48 10.80 15.12 10.56 13.80C10.52 13.52 10.36 13.28 10.20 13.08C10.12 13 9.88 12.96 9.72 13C9.56 13.04 9.36 13.16 9.32 13.28C9.20 13.72 9.12 14.16 9.08 14.60C8.92 15.84 8.64 17.04 8.16 18.20C7.32 20.12 6.56 22 5.76 23.92C5.60 24.24 5.44 24.52 5.24 24.84C5.08 25 4.88 25 4.80 24.84C4.56 24.48 4.28 24.08 4.20 23.68C3.48 21 2.64 18.36 2.04 15.64C1.92 15.12 1.88 14.56 1.72 14.08C1.56 13.64 1.24 13.32 0.80 13.16C0.64 13.16 0.44 13.20 0.32 13.32C0.08 13.48-0.04 13.76 0 14C0.20 14.88 0.40 15.76 0.68 16.60C1.80 19.72 2.40 22.96 3.44 26.12C3.88 27.32 3.84 28.56 3.20 29.76C2.96 30.24 2.80 30.76 2.60 31.24C2.24 32.36 1.84 33.44 1.56 34.56C1.20 35.96 0.96 37.36 0.56 38.72C0.52 38.88 0.56 39.08 0.56 39.28C0.56 39.64 1.08 40.12 1.44 40.12C1.88 40.12 2.52 39.52 2.52 39.08C2.56 38.84 2.52 38.56 2.52 38.68ZM14.52 39.08C14.48 39 14.40 38.96 14.36 38.92C14.24 38.76 14.12 38.64 13.96 38.52C13.20 37.96 12.84 37.56 12.76 37.16C12.68 36.76 12.88 36.24 13.44 35.44C13.44 35.40 13.48 35.36 13.52 35.28C13.60 35.20 13.68 35.08 13.76 34.96C13.96 34.60 14.24 34.08 14 33.64C13.84 33.32 13.52 33.16 12.96 33.08C12.36 33.04 12.24 32.88 12.16 32.40C12.12 32.16 12.04 31.88 11.92 31.60C11.68 31 11.36 30.40 10.64 30.40C10.36 30.40 10.08 30.48 9.64 30.64C9.20 30.80 8.72 31 8.40 31.36C6.88 33.08 5.88 34.64 5.20 36.28C5.12 36.48 5.08 36.64 5.04 36.80C5.04 36.84 5.04 36.88 5 36.92L5 36.96L5 37C4.96 37.92 5.24 38.72 5.76 39.28C6.20 39.72 6.80 40 7.44 40C7.92 40 8.36 39.88 8.84 39.64C9.44 39.32 10.04 38.92 10.60 38.40C10.84 38.16 11 38.12 11.08 38.12C11.20 38.12 11.36 38.32 11.44 38.48C11.88 39.12 12.40 39.84 13.40 39.84C13.44 39.84 13.44 39.84 13.48 39.84C13.72 39.84 13.96 39.76 14.12 39.68C14.24 39.64 14.32 39.60 14.36 39.60L14.88 39.44ZM10.92 34.36C10.80 36.24 9.64 37.88 8.08 38.32C7.84 38.36 7.68 38.40 7.52 38.40C7.52 38.40 7.52 38.40 7.52 38.40C7.24 38.40 6.96 38.32 6.88 37.44C6.88 37.40 6.88 37.32 6.88 37.28C6.84 37.20 6.84 37.08 6.88 37.04C7.60 35.28 8.36 33.60 10 32.52C10.24 32.40 10.36 32.36 10.40 32.36C10.52 32.36 10.56 32.56 10.60 32.72C10.68 33.20 10.80 33.68 10.88 34.04C10.88 34.16 10.92 34.28 10.92 34.36ZM19.80 37.92C19.80 39.84 20.64 40.40 21.88 39.76C22.52 39.40 23 38.84 23.60 38.40C23.80 38.24 24.08 38.12 24.32 38C24.40 38.24 24.52 38.48 24.56 38.76C24.64 39.16 24.56 39.64 24.72 40C24.88 40.36 25.24 40.60 25.52 40.92C25.64 40.60 25.84 40.28 25.88 40C25.96 38.52 26.40 37.16 27.32 36C27.60 35.60 27.72 35.08 27.88 34.60C28.16 33.88 28.84 33.04 27.88 32.52C26.96 32.04 26.80 33.16 26.36 33.64C25.04 35.16 23.76 36.72 22.44 38.24C22.20 38.48 21.68 38.48 21.28 38.60C21.28 38.20 21.16 37.76 21.28 37.44C21.92 35.92 22.68 34.44 23.32 32.92C23.76 31.88 23.56 30.92 22.96 30.56C22.16 30.04 21.64 30.76 21 31.04C20.76 31.16 20.52 31.36 20.32 31.56C18.44 33.44 16.52 35.28 14.68 37.20C14.32 37.52 14.04 38 13.92 38.48C13.88 38.72 14.16 39.08 14.36 39.36C14.40 39.40 14.84 39.20 15 39.04C16.44 37.36 17.80 35.60 19.28 33.96C19.92 33.24 20.88 32.80 21.68 32.24C22.16 33.36 21.28 34.08 20.96 35C20.52 36.12 20.08 37.24 19.80 37.92ZM34.44 37.92C34.44 39.84 35.28 40.40 36.52 39.76C37.16 39.40 37.64 38.84 38.24 38.40C38.44 38.24 38.72 38.12 38.96 38C39.04 38.24 39.16 38.48 39.20 38.76C39.28 39.16 39.20 39.64 39.36 40C39.52 40.36 39.88 40.60 40.16 40.92C40.28 40.60 40.48 40.28 40.52 40C40.60 38.52 41.04 37.16 41.96 36C42.24 35.60 42.36 35.08 42.52 34.60C42.80 33.88 43.48 33.04 42.52 32.52C41.60 32.04 41.44 33.16 41 33.64C39.68 35.16 38.40 36.72 37.08 38.24C36.84 38.48 36.32 38.48 35.92 38.60C35.92 38.20 35.80 37.76 35.92 37.44C36.56 35.92 37.32 34.44 37.96 32.92C38.40 31.88 38.20 30.92 37.60 30.56C36.80 30.04 36.28 30.76 35.64 31.04C35.40 31.16 35.16 31.36 34.96 31.56C33.08 33.44 31.16 35.28 29.32 37.20C28.96 37.52 28.68 38 28.56 38.48C28.52 38.72 28.80 39.08 29 39.36C29.04 39.40 29.48 39.20 29.64 39.04C31.08 37.36 32.44 35.60 33.92 33.96C34.56 33.24 35.52 32.80 36.32 32.24C36.80 33.36 35.92 34.08 35.60 35C35.16 36.12 34.72 37.24 34.44 37.92ZM53.20 17L53.16 17.04C53.16 16.96 53.20 16.84 53.20 16.76C53.32 16.12 53.48 16 53.92 16.08C55.40 16.36 56.68 17.24 58.04 17.80C58.52 17.96 58.92 18.32 59.12 18.80C59.32 19.16 59.08 19.56 58.96 19.92C58.80 20.60 58.76 21.28 58.80 22C58.84 22.48 58.84 23 58.72 23.48C58.32 25.32 58.08 27.24 57.40 29C56.36 31.72 55.96 34.60 54.92 37.32C54.88 37.40 54.92 37.52 54.88 37.60C54.84 37.96 55.24 38.36 55.60 38.36C56.16 38.36 56.64 38.16 56.80 37.64C57.24 36.32 57.72 35 58 33.64C58.52 31.08 59.48 28.68 59.96 26.12C60.68 24.44 61 22.68 61.04 20.88C61.04 20.56 61.44 20.44 61.72 20.64C62.28 21.04 62.92 21.40 63.36 21.92C64.40 23 65.36 24.16 66.28 25.32C68.08 27.68 69.16 30.32 69.52 33.24C69.64 34.36 69.80 35.44 69.88 36.52C70.24 41.04 68.64 44.76 65.12 47.60C62.64 49.68 59.76 50.96 56.44 51.32C54.68 51.48 53.08 51.24 51.52 50.48C51.16 50.32 50.80 50.12 50.44 49.92C48.60 48.96 46.88 47.76 45.24 46.40C44.96 46.16 44.60 45.96 44.48 45.56C44.40 45.04 44.88 44.88 45.04 44.56C45.16 44.36 44.92 43.92 44.68 43.88C44.60 43.88 44.48 43.80 44.40 43.80C43.52 43.92 42.64 44 41.72 44.12C41.60 44.16 41.44 44.40 41.40 44.56C41.40 44.72 41.48 44.92 41.56 45.08C41.68 45.24 41.84 45.40 42 45.48C42.96 45.80 43.76 46.44 44.52 47.04C45.88 48.08 47.28 49.08 48.64 50.08C49.84 51 51.16 51.68 52.60 52.12C54.64 52.76 56.68 53 58.76 52.20C59.04 52.12 59.32 52 59.60 51.92C62.88 51 65.56 49.16 67.92 46.80C69.32 45.36 70.28 43.60 70.84 41.64C71.28 40.08 71.32 38.48 71.36 36.88C71.44 35.56 71.32 34.32 70.80 33.08C70.64 32.72 70.52 32.28 70.56 31.92C70.80 30.76 70.24 29.80 69.72 28.84C69.16 27.88 68.56 27 68.24 25.92C68.16 25.64 67.96 25.40 67.76 25.16C66.36 23.36 64.92 21.56 63.28 19.96C61.40 18.12 59.44 16.48 57 15.44C55.52 14.84 54 14.32 52.64 13.52C52.12 13.20 51.52 13.04 50.92 13.08C50.72 13.08 50.52 13.16 50.32 13.16C50.08 13.24 49.80 13.60 49.88 13.84C49.92 14.04 49.96 14.24 50.04 14.40C50.76 15.40 51.64 16.20 52.64 16.84C52.80 16.96 53.04 16.96 53.20 17ZM81 32.56C81 32.52 81 32.48 81 32.40C81 32.24 81 32 80.92 31.80C80.68 30.84 80.16 30.36 79.32 30.36L79.20 30.36C79.04 30.36 78.88 30.36 78.72 30.36C78.44 30.36 78.08 30.36 77.72 30.36C77.04 30.28 76.44 30.52 75.84 31.08C74.88 31.96 74 33 73.08 34.40C72.40 35.40 72.12 36.48 71.92 37.36C71.80 37.96 72 38.72 72.40 39.24C72.72 39.60 73.24 40.04 74.04 40.04C74.08 40.04 74.12 40.04 74.20 40.04C74.60 40 75.08 39.96 75.52 39.80C76.08 39.56 76.64 39.24 77.32 38.80C77.68 38.60 78 38.36 78.32 38.12C78.84 37.76 79.40 37.36 80 37.08C80.24 36.96 80.32 36.64 80.24 36.40C80.12 36.04 80.16 35.72 80.36 35.36C80.84 34.56 80.96 33.64 81 32.56L81 32.56L81 32.56ZM76.64 33.48C76.72 33.40 76.84 33.28 77 33.24C77.12 33.16 77.28 33.12 77.44 33.08C77.72 32.96 78 32.88 78.24 32.72C78.48 32.52 78.68 32.28 78.88 32.04C78.96 31.96 79.08 31.84 79.16 31.72C79.20 31.72 79.24 31.68 79.32 31.68C79.44 31.68 79.60 31.76 79.68 31.80C79.76 31.88 79.84 32 79.92 32.16C79.96 32.24 79.96 32.32 80 32.44C80 32.52 80 32.60 80.04 32.68C80 32.76 80 32.88 80 32.96C79.96 33.24 79.92 33.56 79.80 33.84C79.60 34.48 79.32 35.12 78.96 35.92C78.88 36.08 78.64 36.20 78.48 36.28C78.24 36.32 78 36.36 77.76 36.36C77.76 36.36 77.76 36.36 77.76 36.36C77.36 36.36 76.96 36.28 76.56 36.08C76.16 35.88 75.92 35.48 75.96 35.04C76 34.52 76.24 34 76.64 33.48ZM77 37.64C76.96 37.68 76.96 37.72 76.96 37.72C76.92 37.84 76.88 37.92 76.80 37.96C76.24 38.56 75.48 38.80 74.88 39C74.80 39.04 74.68 39.04 74.56 39.04C74.48 39.04 74.40 39.04 74.36 39.04C74.32 39.04 74.28 39.04 74.24 39.04C73.72 39 73.28 38.56 73.24 38.12C73.24 37.64 73.24 37.20 73.36 36.80C73.48 36.48 73.68 36.12 73.88 35.80C73.96 35.68 74 35.56 74.08 35.44C74.16 35.32 74.28 35.28 74.36 35.28C74.40 35.28 74.48 35.28 74.52 35.32C75.16 36.40 75.92 37.04 76.88 37.36C76.92 37.36 76.92 37.48 76.96 37.52C76.96 37.56 77 37.60 77 37.64ZM88.84 38C88.76 37.64 88.28 37.40 87.76 37.20C87.32 37.04 86.88 36.88 86.44 36.72C85.88 36.52 85.28 36.32 84.72 36.08C83.76 35.64 82.84 35.16 82.80 34.24C82.72 33.24 83.56 32.68 84.40 32.16L84.44 32.16C84.52 32.08 84.60 32.04 84.68 31.96C85 31.76 85.32 31.52 85.60 31.52C85.72 31.52 85.84 31.56 85.96 31.68C86.12 31.84 86.08 32.36 86.08 32.76C86.04 32.92 86.04 33.08 86.04 33.24C86.04 33.48 86 33.68 85.92 33.96C85.92 34.04 85.88 34.16 85.84 34.28L85.76 34.80L86.12 34.44C86.20 34.36 86.28 34.28 86.40 34.20C86.60 34 86.80 33.80 86.96 33.56C87.20 33.20 87.36 32.80 87.52 32.36C87.76 31.64 87.56 30.96 86.92 30.40C86.60 30.12 86.24 30 85.84 30C85.60 30 85.32 30.04 85.04 30.16C83.76 30.68 82.64 31.56 81.56 32.92C81 33.60 80.96 34.40 81.52 35.08C81.88 35.56 82.28 36.04 82.80 36.36C83.44 36.76 84.12 37.08 84.76 37.40C85.16 37.56 85.52 37.76 85.88 37.96C85.96 38 86.04 38.08 86.12 38.16C86.12 38.20 86.12 38.20 86.12 38.20C86.12 38.20 86.12 38.20 86.12 38.20C86.04 38.24 85.96 38.32 85.92 38.32C85.40 38.40 84.88 38.44 84.40 38.48C84.28 38.52 84.16 38.52 84 38.52C83.84 38.52 83.64 38.48 83.48 38.48C83.20 38.44 82.92 38.44 82.68 38.44C82.64 38.44 82.56 38.44 82.52 38.44C82.32 38.44 81.68 38.60 81.68 38.88C81.64 39.28 81.80 39.72 81.92 40C81.96 40.16 82.12 40.16 82.16 40.16C82.28 40.16 82.44 40.12 82.60 40.08C82.68 40.08 82.72 40.08 82.76 40.04C82.96 40.04 83.16 40 83.32 39.96C83.68 39.88 84 39.84 84.32 39.80C84.48 39.80 84.68 39.80 84.84 39.80C85.84 39.76 86.92 39.76 87.92 39.20C87.96 39.16 88.04 39.12 88.12 39.08C88.52 38.88 89.04 38.60 88.84 38ZM115.68 13.08C114.64 13.12 113.60 13.24 112.60 13.52C109.48 14.44 106.80 16.20 104.12 18.04C104.04 18.08 104 18.16 103.92 18.24C103.60 18.56 103.52 19.32 103.72 19.68C104.16 20.44 104.72 21.04 105.52 21.40C106.44 21.84 107.40 22.24 108.36 22.60C111.20 23.64 113.88 25 116.12 27.08C117.32 27.80 118.04 28.92 118.76 30.08C119 30.56 119.08 31.08 118.88 31.60C118.60 32.36 118.24 33.08 117.64 33.72C116.96 34.48 116.12 35.12 115.24 35.64C113.16 36.88 110.96 37.76 108.64 38.40C106.92 38.84 105.36 38.52 103.84 37.84C103.20 37.56 102.64 37.04 102.12 36.52C101.76 36.16 101.44 35.72 101.20 35.28C100.96 34.76 101.44 34.32 101.52 33.80C101.56 33.52 101.28 33.24 101 33.20C100.08 32.96 99.20 34.40 99.48 35.08C100.32 36.80 101.44 38.24 103.28 38.96C103.48 39.04 103.68 39.12 103.88 39.24C105.32 39.96 106.84 40.04 108.40 39.68C111.04 39.04 113.56 38.08 115.92 36.76C116.92 36.24 117.84 35.56 118.72 34.84C120.20 33.56 120.60 31.92 120.20 30.04C120.16 29.84 120.08 29.64 119.96 29.48C119.12 28.16 118.24 26.88 116.96 25.96C116.20 25.40 115.48 24.80 114.72 24.28C113.28 23.24 111.84 22.24 110.12 21.76C109.12 21.48 108.16 21 107.20 20.64C106.84 20.48 106.48 20.28 106.12 20.04C105.92 19.96 105.80 19.80 105.64 19.68C105.48 19.52 105.48 18.96 105.60 18.80C106.68 17.60 108.20 17.12 109.56 16.32C110.88 15.56 112.36 15.08 113.92 14.80C114.80 14.64 115.56 14.80 116.36 15.04C117.12 15.28 117.40 16.20 116.96 16.80C116.84 16.96 116.72 17.12 116.56 17.28C116.32 17.60 116.04 17.92 115.80 18.24C115.56 18.52 115.56 18.92 115.80 19.08C116.08 19.24 116.36 19.20 116.68 19.04C117.44 18.72 118.08 18.24 118.68 17.60C119.16 17.12 119.16 16.52 119.04 15.88C118.88 15.24 118.48 14.76 118.08 14.28C117.48 13.52 116.68 13.08 115.68 13.08ZM128.28 39.08C128.24 39 128.16 38.96 128.12 38.92C128.00 38.76 127.88 38.64 127.72 38.52C126.96 37.96 126.60 37.56 126.52 37.16C126.44 36.76 126.64 36.24 127.20 35.44C127.20 35.40 127.24 35.36 127.28 35.28C127.36 35.20 127.44 35.08 127.52 34.96C127.72 34.60 128.00 34.08 127.76 33.64C127.60 33.32 127.28 33.16 126.72 33.08C126.12 33.04 126.00 32.88 125.92 32.40C125.88 32.16 125.80 31.88 125.68 31.60C125.44 31 125.12 30.40 124.40 30.40C124.12 30.40 123.84 30.48 123.40 30.64C122.96 30.80 122.48 31 122.16 31.36C120.64 33.08 119.64 34.64 118.96 36.28C118.88 36.48 118.84 36.64 118.80 36.80C118.80 36.84 118.80 36.88 118.76 36.92L118.76 36.96L118.76 37C118.72 37.92 119.00 38.72 119.52 39.28C119.96 39.72 120.56 40 121.20 40C121.68 40 122.12 39.88 122.60 39.64C123.20 39.32 123.80 38.92 124.36 38.40C124.60 38.16 124.76 38.12 124.84 38.12C124.96 38.12 125.12 38.32 125.20 38.48C125.64 39.12 126.16 39.84 127.16 39.84C127.20 39.84 127.20 39.84 127.24 39.84C127.48 39.84 127.72 39.76 127.88 39.68C128.00 39.64 128.08 39.60 128.12 39.60L128.64 39.44ZM124.68 34.36C124.56 36.24 123.40 37.88 121.84 38.32C121.60 38.36 121.44 38.40 121.28 38.40C121.28 38.40 121.28 38.40 121.28 38.40C121.00 38.40 120.72 38.32 120.64 37.44C120.64 37.40 120.64 37.32 120.64 37.28C120.60 37.20 120.60 37.08 120.64 37.04C121.36 35.28 122.12 33.60 123.76 32.52C124.00 32.40 124.12 32.36 124.16 32.36C124.28 32.36 124.32 32.56 124.36 32.72C124.44 33.20 124.56 33.68 124.64 34.04C124.64 34.16 124.68 34.28 124.68 34.36ZM133.56 37.92C133.56 39.84 134.40 40.40 135.64 39.76C136.28 39.40 136.76 38.84 137.36 38.40C137.56 38.24 137.84 38.12 138.08 38C138.16 38.24 138.28 38.48 138.32 38.76C138.40 39.16 138.32 39.64 138.48 40C138.64 40.36 139 40.60 139.28 40.92C139.40 40.60 139.60 40.28 139.64 40C139.72 38.52 140.16 37.16 141.08 36C141.36 35.60 141.48 35.08 141.64 34.60C141.92 33.88 142.60 33.04 141.64 32.52C140.72 32.04 140.56 33.16 140.12 33.64C138.80 35.16 137.52 36.72 136.20 38.24C135.96 38.48 135.44 38.48 135.04 38.60C135.04 38.20 134.92 37.76 135.04 37.44C135.68 35.92 136.44 34.44 137.08 32.92C137.52 31.88 137.32 30.92 136.72 30.56C135.92 30.04 135.40 30.76 134.76 31.04C134.52 31.16 134.28 31.36 134.08 31.56C132.20 33.44 130.28 35.28 128.44 37.20C128.08 37.52 127.80 38 127.68 38.48C127.64 38.72 127.92 39.08 128.12 39.36C128.16 39.40 128.60 39.20 128.76 39.04C130.20 37.36 131.56 35.60 133.04 33.96C133.68 33.24 134.64 32.80 135.44 32.24C135.92 33.36 135.04 34.08 134.72 35C134.28 36.12 133.84 37.24 133.56 37.92ZM151.36 14.84C151.24 14.40 151.16 13.92 150.92 13.52C150.80 13.28 150.44 13 150.20 13C149.92 13 149.64 13.28 149.48 13.52C149.32 13.80 149.24 14.16 149.24 14.48C149.12 19.08 147.76 23.44 146.76 27.88C146.32 29.92 146.28 29.92 144.28 30.20C143.20 30.36 142.84 30.68 143.32 31.52C144.20 33.08 143.92 34.68 143.80 36.28C143.76 37.16 143.44 38 143.32 38.88C143.28 39.24 143.48 39.60 143.60 39.96C143.84 39.76 144.24 39.56 144.36 39.28C145.08 37.32 145.80 35.32 146.48 33.32C146.84 32.32 147.36 31.80 148.44 31.88C148.84 31.92 149.28 31.88 149.64 31.84C150.16 31.72 150.64 31.56 151.16 31.44C150.68 31.16 150.20 30.88 149.72 30.68C149.44 30.56 149.12 30.48 148.80 30.44C147.76 30.28 147.68 29.68 147.92 28.84C148.64 26.24 149.36 23.68 150 21.08C150.52 19.04 150.92 16.96 151.36 14.84ZM157.56 32.56C157.56 32.52 157.56 32.48 157.56 32.40C157.56 32.24 157.56 32 157.48 31.80C157.24 30.84 156.72 30.36 155.88 30.36L155.76 30.36C155.60 30.36 155.44 30.36 155.28 30.36C155 30.36 154.64 30.36 154.28 30.36C153.60 30.28 153 30.52 152.40 31.08C151.44 31.96 150.56 33 149.64 34.40C148.96 35.40 148.68 36.48 148.48 37.36C148.36 37.96 148.56 38.72 148.96 39.24C149.28 39.60 149.80 40.04 150.60 40.04C150.64 40.04 150.68 40.04 150.76 40.04C151.16 40 151.64 39.96 152.08 39.80C152.64 39.56 153.20 39.24 153.88 38.80C154.24 38.60 154.56 38.36 154.88 38.12C155.40 37.76 155.96 37.36 156.56 37.08C156.80 36.96 156.88 36.64 156.80 36.40C156.68 36.04 156.72 35.72 156.92 35.36C157.40 34.56 157.52 33.64 157.56 32.56L157.56 32.56L157.56 32.56ZM153.20 33.48C153.28 33.40 153.40 33.28 153.56 33.24C153.68 33.16 153.84 33.12 154 33.08C154.28 32.96 154.56 32.88 154.80 32.72C155.04 32.52 155.24 32.28 155.44 32.04C155.52 31.96 155.64 31.84 155.72 31.72C155.76 31.72 155.80 31.68 155.88 31.68C156 31.68 156.16 31.76 156.24 31.80C156.32 31.88 156.40 32 156.48 32.16C156.52 32.24 156.52 32.32 156.56 32.44C156.56 32.52 156.56 32.60 156.60 32.68C156.56 32.76 156.56 32.88 156.56 32.96C156.52 33.24 156.48 33.56 156.36 33.84C156.16 34.48 155.88 35.12 155.52 35.92C155.44 36.08 155.20 36.20 155.04 36.28C154.80 36.32 154.56 36.36 154.32 36.36C154.32 36.36 154.32 36.36 154.32 36.36C153.92 36.36 153.52 36.28 153.12 36.08C152.72 35.88 152.48 35.48 152.52 35.04C152.56 34.52 152.80 34 153.20 33.48ZM153.56 37.64C153.52 37.68 153.52 37.72 153.52 37.72C153.48 37.84 153.44 37.92 153.36 37.96C152.80 38.56 152.04 38.80 151.44 39C151.36 39.04 151.24 39.04 151.12 39.04C151.04 39.04 150.96 39.04 150.92 39.04C150.88 39.04 150.84 39.04 150.80 39.04C150.28 39 149.84 38.56 149.80 38.12C149.80 37.64 149.80 37.20 149.92 36.80C150.04 36.48 150.24 36.12 150.44 35.80C150.52 35.68 150.56 35.56 150.64 35.44C150.72 35.32 150.84 35.28 150.92 35.28C150.96 35.28 151.04 35.28 151.08 35.32C151.72 36.40 152.48 37.04 153.44 37.36C153.48 37.36 153.48 37.48 153.52 37.52C153.52 37.56 153.56 37.60 153.56 37.64ZM165.40 38C165.32 37.64 164.84 37.40 164.32 37.20C163.88 37.04 163.44 36.88 163 36.72C162.44 36.52 161.84 36.32 161.28 36.08C160.32 35.64 159.40 35.16 159.36 34.24C159.28 33.24 160.12 32.68 160.96 32.16L161 32.16C161.08 32.08 161.16 32.04 161.24 31.96C161.56 31.76 161.88 31.52 162.16 31.52C162.28 31.52 162.40 31.56 162.52 31.68C162.68 31.84 162.64 32.36 162.64 32.76C162.60 32.92 162.60 33.08 162.60 33.24C162.60 33.48 162.56 33.68 162.48 33.96C162.48 34.04 162.44 34.16 162.40 34.28L162.32 34.80L162.68 34.44C162.76 34.36 162.84 34.28 162.96 34.20C163.16 34 163.36 33.80 163.52 33.56C163.76 33.20 163.92 32.80 164.08 32.36C164.32 31.64 164.12 30.96 163.48 30.40C163.16 30.12 162.80 30 162.40 30C162.16 30 161.88 30.04 161.60 30.16C160.32 30.68 159.20 31.56 158.12 32.92C157.56 33.60 157.52 34.40 158.08 35.08C158.44 35.56 158.84 36.04 159.36 36.36C160 36.76 160.68 37.08 161.32 37.40C161.72 37.56 162.08 37.76 162.44 37.96C162.52 38 162.60 38.08 162.68 38.16C162.68 38.20 162.68 38.20 162.68 38.20C162.68 38.20 162.68 38.20 162.68 38.20C162.60 38.24 162.52 38.32 162.48 38.32C161.96 38.40 161.44 38.44 160.96 38.48C160.84 38.52 160.72 38.52 160.56 38.52C160.40 38.52 160.20 38.48 160.04 38.48C159.76 38.44 159.48 38.44 159.24 38.44C159.20 38.44 159.12 38.44 159.08 38.44C158.88 38.44 158.24 38.60 158.24 38.88C158.20 39.28 158.36 39.72 158.48 40C158.52 40.16 158.68 40.16 158.72 40.16C158.84 40.16 159 40.12 159.16 40.08C159.24 40.08 159.28 40.08 159.32 40.04C159.52 40.04 159.72 40 159.88 39.96C160.24 39.88 160.56 39.84 160.88 39.80C161.04 39.80 161.24 39.80 161.40 39.80C162.40 39.76 163.48 39.76 164.48 39.20C164.52 39.16 164.60 39.12 164.68 39.08C165.08 38.88 165.60 38.60 165.40 38Z" fill="black"></path></svg>